<svg width="17" height="16" viewBox="0 0 17 16" fill="none" xmlns="http://www.w3.org/2000/svg">
<path d="M14.0781 7.62187L8.175 2.49844C8.12969 2.45937 8.07188 2.4375 8.01094 2.4375H6.62813C6.5125 2.4375 6.45937 2.58125 6.54688 2.65625L12.0188 7.40625H2.875C2.80625 7.40625 2.75 7.4625 2.75 7.53125V8.46875C2.75 8.5375 2.80625 8.59375 2.875 8.59375H12.0172L6.54531 13.3438C6.45781 13.4203 6.51094 13.5625 6.62656 13.5625H8.05625C8.08594 13.5625 8.11562 13.5516 8.1375 13.5312L14.0781 8.37813C14.1322 8.33109 14.1756 8.27299 14.2053 8.20776C14.235 8.14253 14.2504 8.07168 14.2504 8C14.2504 7.92832 14.235 7.85747 14.2053 7.79224C14.1756 7.72701 14.1322 7.66891 14.0781 7.62187Z" fill="#2F6C64"/>
</svg>
